<?xml version="1.0" encoding="utf-8"?>
<!-- Generator: Adobe Illustrator 26.0.1, SVG Export Plug-In . SVG Version: 6.00 Build 0)  -->
<svg version="1.1" id="레이어_1" focusable="false"
	 xmlns="http://www.w3.org/2000/svg" xmlns:xlink="http://www.w3.org/1999/xlink" x="0px" y="0px" viewBox="0 0 80 80"
	 style="enable-background:new 0 0 80 80;" xml:space="preserve">
<path d="M34.9,42.1h-2.7c-0.4,0-0.8-0.4-0.8-0.8v-2.7c0-0.4,0.4-0.8,0.8-0.8h2.7c0.4,0,0.8,0.4,0.8,0.8v2.7
	C35.7,41.8,35.4,42.1,34.9,42.1z M42.1,41.3v-2.7c0-0.4-0.4-0.8-0.8-0.8h-2.7c-0.4,0-0.8,0.4-0.8,0.8v2.7c0,0.4,0.4,0.8,0.8,0.8h2.7
	C41.8,42.1,42.1,41.8,42.1,41.3z M48.6,41.3v-2.7c0-0.4-0.4-0.8-0.8-0.8h-2.7c-0.4,0-0.8,0.4-0.8,0.8v2.7c0,0.4,0.4,0.8,0.8,0.8h2.7
	C48.2,42.1,48.6,41.8,48.6,41.3z M42.1,47.8v-2.7c0-0.4-0.4-0.8-0.8-0.8h-2.7c-0.4,0-0.8,0.4-0.8,0.8v2.7c0,0.4,0.4,0.8,0.8,0.8h2.7
	C41.8,48.6,42.1,48.2,42.1,47.8z M35.7,47.8v-2.7c0-0.4-0.4-0.8-0.8-0.8h-2.7c-0.4,0-0.8,0.4-0.8,0.8v2.7c0,0.4,0.4,0.8,0.8,0.8h2.7
	C35.4,48.6,35.7,48.2,35.7,47.8z M48.6,47.8v-2.7c0-0.4-0.4-0.8-0.8-0.8h-2.7c-0.4,0-0.8,0.4-0.8,0.8v2.7c0,0.4,0.4,0.8,0.8,0.8h2.7
	C48.2,48.6,48.6,48.2,48.6,47.8z M55,30.4v23.6c0,1.8-1.4,3.2-3.2,3.2H28.2c-1.8,0-3.2-1.4-3.2-3.2V30.4c0-1.8,1.4-3.2,3.2-3.2h3.2
	v-3.5c0-0.4,0.4-0.8,0.8-0.8h2.7c0.4,0,0.8,0.4,0.8,0.8v3.5h8.6v-3.5c0-0.4,0.4-0.8,0.8-0.8h2.7c0.4,0,0.8,0.4,0.8,0.8v3.5h3.2
	C53.6,27.1,55,28.6,55,30.4z M51.8,53.5v-20H28.2v20c0,0.2,0.2,0.4,0.4,0.4h22.8C51.6,53.9,51.8,53.7,51.8,53.5z"/>
</svg>
