<?xml version="1.0" encoding="utf-8"?>
<!-- Generator: Adobe Illustrator 26.0.1, SVG Export Plug-In . SVG Version: 6.00 Build 0)  -->
<svg version="1.1" id="레이어_1" focusable="false"
	 xmlns="http://www.w3.org/2000/svg" xmlns:xlink="http://www.w3.org/1999/xlink" x="0px" y="0px" viewBox="0 0 80 80"
	 style="enable-background:new 0 0 80 80;" xml:space="preserve">
<path d="M40,57.1c2.4,0,4.3-1.9,4.3-4.3h-8.6C35.7,55.2,37.6,57.1,40,57.1z M54.4,47.1c-1.3-1.4-3.7-3.5-3.7-10.3
	c0-5.2-3.6-9.4-8.6-10.4V25c0-1.2-1-2.1-2.1-2.1c-1.2,0-2.1,1-2.1,2.1v1.4c-4.9,1-8.6,5.2-8.6,10.4c0,6.9-2.4,8.9-3.7,10.3
	c-0.4,0.4-0.6,0.9-0.6,1.5c0,1.1,0.9,2.1,2.1,2.1h25.7c1.3,0,2.1-1,2.1-2.1C55,48.1,54.8,47.5,54.4,47.1z"/>
</svg>
