<svg id="Layer_1" data-name="Layer 1" xmlns="http://www.w3.org/2000/svg" viewBox="0 0 511.99 511.99"><defs><style>.cls-1{fill:#fff;}</style></defs><path class="cls-1" d="M204.3,5C104.9,24.4,24.8,104.3,5.2,203.4c-37,187,131.7,326.4,258.8,306.7,41.2-6.4,61.4-54.6,42.5-91.7C283.4,373,316.4,320,367.4,320h79.7c35.8,0,64.8-29.6,64.9-65.3C511.5,97.1,368.1-26.9,204.3,5ZM96,320a32,32,0,1,1,32-32A32,32,0,0,1,96,320Zm32-128a32,32,0,1,1,32-32A32,32,0,0,1,128,192Zm128-64a32,32,0,1,1,32-32A32,32,0,0,1,256,128Zm128,64a32,32,0,1,1,32-32A32,32,0,0,1,384,192Z" transform="translate(-0.01 0.04)"/></svg>