<svg id="Layer_1" data-name="Layer 1" xmlns="http://www.w3.org/2000/svg" viewBox="0 0 512 512"><defs><style>.cls-1{fill:#fff;}</style></defs><path class="cls-1" d="M505,442.66,405.33,343a24,24,0,0,0-17-7H372a207,207,0,0,0,44-128C416,93.09,322.92,0,208,0S0,93.09,0,208,93.11,416,208,416a207,207,0,0,0,128-44v16.3a24,24,0,0,0,7,17L442.74,505a23.9,23.9,0,0,0,33.9,0l28.3-28.3a24.1,24.1,0,0,0,.1-34ZM208,352A144,144,0,1,1,352,208,143.9,143.9,0,0,1,208,352Zm0-240a73.83,73.83,0,0,0-73.84,73.83c0,33,48.26,93,66.75,114.86a9.23,9.23,0,0,0,13,1.16,9.08,9.08,0,0,0,1.16-1.16c18.49-21.81,66.75-81.89,66.75-114.86A73.83,73.83,0,0,0,208,112Zm0,96a24,24,0,1,1,24-24A24,24,0,0,1,208,208Z" transform="translate(0 0)"/></svg>